<svg width="64" height="64" viewBox="0 0 64 64" fill="none" xmlns="http://www.w3.org/2000/svg">
<g clip-path="url(#clip0_14555_406)">
<path d="M58.88 23.3649H55.0658V22.9365C55.0658 21.8703 54.1983 21.0029 53.132 21.0029H45.6093C45.0908 21.0029 44.6705 21.4231 44.6705 21.9418C44.6705 22.4604 45.0908 22.8806 45.6093 22.8806H53.132C53.163 22.8806 53.1881 22.9056 53.1881 22.9365V34.3836C53.1881 34.9022 53.6085 35.3224 54.1269 35.3224C54.6454 35.3224 55.0658 34.9022 55.0658 34.3836V25.2425H58.88C59.007 25.2425 59.1102 25.3458 59.1102 25.4727V58.2262C59.1102 60.3746 57.3624 62.1225 55.214 62.1225H8.78617C6.63776 62.1225 4.88992 60.3746 4.88992 58.2262V25.4727C4.88992 25.3458 4.99319 25.2425 5.12012 25.2425H9.05956V57.352C9.05956 58.6759 10.1366 59.753 11.4606 59.753H52.6646C53.9886 59.753 55.0656 58.676 55.0656 57.352V38.3878C55.0656 37.8692 54.6453 37.449 54.1268 37.449C53.6083 37.449 53.188 37.8692 53.188 38.3878V51.8983H37.9985C36.0313 51.8983 34.2558 52.7302 33.0015 54.0591V41.9151C33.0015 41.3965 32.5811 40.9763 32.0627 40.9763C31.5442 40.9763 31.1238 41.3965 31.1238 41.9151V54.0592C29.8696 52.7304 28.0939 51.8984 26.1268 51.8984H21.8608C21.3423 51.8984 20.9219 52.3186 20.9219 52.8373C20.9219 53.3559 21.3423 53.7761 21.8608 53.7761H26.1268C28.5756 53.7761 30.6172 55.5472 31.0416 57.8754H11.4606C11.1719 57.8754 10.9372 57.6407 10.9372 57.352V53.7761H17.8564C18.3748 53.7761 18.7952 53.3559 18.7952 52.8373C18.7952 52.3186 18.3748 51.8984 17.8564 51.8984H10.9372V22.9365C10.9372 22.9056 10.9624 22.8806 10.9933 22.8806H18.516C19.0345 22.8806 19.4549 22.4604 19.4549 21.9418C19.4549 21.4231 19.0345 21.0029 18.516 21.0029H10.9933C9.92703 21.0029 9.05956 21.8704 9.05956 22.9365V23.3649H5.12012C3.95785 23.3649 3.01227 24.3105 3.01227 25.4727V58.2262C3.01227 61.41 5.60243 64.0001 8.78617 64.0001H55.2137C58.3975 64.0001 60.9876 61.41 60.9876 58.2262V25.4727C60.9878 24.3105 60.0423 23.3649 58.88 23.3649ZM37.9985 53.776H53.188V57.352C53.188 57.6407 52.9533 57.8754 52.6646 57.8754H33.0839C33.5081 55.5471 35.5497 53.776 37.9985 53.776Z" fill="#1F4A21"/>
<path d="M19.5455 13.1725C20.0609 13.2203 20.5196 12.8421 20.5683 12.3259C20.8368 9.47888 22.1514 6.84291 24.2704 4.90367C26.4026 2.95242 29.1698 1.87765 32.0627 1.87765C38.4295 1.87765 43.6094 7.05747 43.6094 13.4242C43.6094 15.82 42.8822 18.1175 41.5066 20.0687C41.4989 20.0797 41.4914 20.091 41.484 20.1023L35.4762 29.4552C35.379 29.6067 35.3273 29.7827 35.3273 29.9627V31.1789C35.3273 31.4257 35.1265 31.6265 34.8797 31.6265H34.8183L35.4164 21.4778H36.4859C38.0163 21.4778 39.2613 20.2328 39.2613 18.7025V18.5886C39.2613 17.0583 38.0163 15.8133 36.4859 15.8133C35.0187 15.8133 33.8018 16.9607 33.7154 18.4254L33.6462 19.6002H30.3539L30.2847 18.4254C30.1984 16.9607 28.9813 15.8133 27.5141 15.8133C25.9837 15.8133 24.7387 17.0583 24.7387 18.5886V18.7025C24.7387 20.2328 25.9837 21.4778 27.5141 21.4778H28.5836L29.1814 31.62C28.9652 31.5885 28.7981 31.4037 28.7981 31.1789V29.9627C28.7981 29.7827 28.7464 29.6067 28.6492 29.4552L22.6414 20.1023C22.6341 20.091 22.6266 20.0797 22.6188 20.0687C21.755 18.8432 21.1466 17.4814 20.811 16.021C20.6948 15.5157 20.1903 15.2003 19.6857 15.3164C19.1804 15.4327 18.8649 15.9364 18.9811 16.4417C19.3701 18.134 20.0737 19.7125 21.0724 21.1336L26.9207 30.2379V31.1786C26.9207 32.1266 27.4916 32.9426 28.3071 33.3043V34.8919C28.3071 36.5625 29.6662 37.9215 31.3368 37.9215H32.7893C34.4598 37.9215 35.819 36.5625 35.819 34.8919V33.3043C36.6344 32.9426 37.2054 32.1267 37.2054 31.1786V30.2379L43.0536 21.1336C44.6458 18.8678 45.4874 16.2023 45.4874 13.4241C45.4869 6.022 39.4648 0 32.0627 0C28.6994 0 25.4819 1.24964 23.0028 3.51859C20.5397 5.77303 19.0112 8.8381 18.6991 12.1497C18.6502 12.666 19.0293 13.1239 19.5455 13.1725ZM35.5898 18.5358C35.6177 18.062 36.0114 17.6909 36.4859 17.6909C36.981 17.6909 37.3837 18.0935 37.3837 18.5885V18.7024C37.3837 19.1974 36.981 19.6 36.4859 19.6H35.5271L35.5898 18.5358ZM27.5141 19.6C27.0191 19.6 26.6164 19.1974 26.6164 18.7024V18.5885C26.6164 18.0935 27.0191 17.6909 27.5141 17.6909C27.9888 17.6909 28.3824 18.062 28.4103 18.5358L28.473 19.6H27.5141ZM33.5355 21.4777L32.9375 31.6264H31.0626L30.4647 21.4777H33.5355ZM33.9408 34.892C33.9408 35.5272 33.4241 36.044 32.7888 36.044H31.3363C30.7011 36.044 30.1843 35.5272 30.1843 34.892V33.5041H33.9407V34.892H33.9408Z" fill="#1F4A21"/>
<path d="M48.5076 7.12875C48.7276 7.12875 48.9484 7.05189 49.1266 6.89542L51.175 5.09688C51.5647 4.7549 51.6031 4.16156 51.2612 3.77201C50.9192 3.38246 50.326 3.34391 49.9363 3.68589L47.8879 5.48443C47.4982 5.82641 47.4598 6.41975 47.8018 6.8093C47.9874 7.02072 48.2469 7.12875 48.5076 7.12875Z" fill="#1F4A21"/>
<path d="M47.8879 12.7909L49.9363 14.5895C50.1145 14.7461 50.3353 14.8229 50.5554 14.8229C50.8161 14.8229 51.0756 14.7148 51.2612 14.5034C51.6034 14.1139 51.5648 13.5207 51.1753 13.1785L49.1269 11.3799C48.7372 11.0376 48.1441 11.0763 47.802 11.466C47.4598 11.8556 47.4982 12.4486 47.8879 12.7909Z" fill="#1F4A21"/>
<path d="M12.9502 5.09703L14.9986 6.89557C15.1769 7.05216 15.3977 7.1289 15.6176 7.1289C15.8783 7.1289 16.1378 7.02087 16.3235 6.80944C16.6656 6.41989 16.627 5.82656 16.2373 5.48457L14.189 3.68603C13.7994 3.3438 13.2061 3.38248 12.8641 3.77216C12.522 4.16171 12.5605 4.75492 12.9502 5.09703Z" fill="#1F4A21"/>
<path d="M13.5699 14.8232C13.7898 14.8232 14.0107 14.7464 14.189 14.5899L16.2374 12.7912C16.627 12.4491 16.6655 11.8559 16.3234 11.4663C15.9814 11.0768 15.3882 11.0382 14.9985 11.3802L12.9502 13.1789C12.5606 13.521 12.522 14.1142 12.8642 14.5038C13.0497 14.7152 13.309 14.8232 13.5699 14.8232Z" fill="#1F4A21"/>
<path d="M23.7563 32.5653C23.7563 32.0467 23.336 31.6265 22.8175 31.6265H13.5696C13.0511 31.6265 12.6307 32.0467 12.6307 32.5653C12.6307 33.0839 13.0511 33.5041 13.5696 33.5041H22.8175C23.336 33.5041 23.7563 33.0839 23.7563 32.5653Z" fill="#1F4A21"/>
<path d="M25.6775 36.4019H15.2654C14.7469 36.4019 14.3266 36.8221 14.3266 37.3407C14.3266 37.8593 14.7469 38.2795 15.2654 38.2795H25.6775C26.196 38.2795 26.6163 37.8593 26.6163 37.3407C26.6163 36.8221 26.196 36.4019 25.6775 36.4019Z" fill="#1F4A21"/>
<path d="M25.6775 40.9761H15.2654C14.7469 40.9761 14.3266 41.3963 14.3266 41.9149C14.3266 42.4335 14.7469 42.8537 15.2654 42.8537H25.6775C26.196 42.8537 26.6163 42.4335 26.6163 41.9149C26.6163 41.3963 26.196 40.9761 25.6775 40.9761Z" fill="#1F4A21"/>
<path d="M25.6775 45.5503H15.2654C14.7469 45.5503 14.3266 45.9705 14.3266 46.4891C14.3266 47.0077 14.7469 47.4279 15.2654 47.4279H25.6775C26.196 47.4279 26.6163 47.0077 26.6163 46.4891C26.6163 45.9705 26.196 45.5503 25.6775 45.5503Z" fill="#1F4A21"/>
<path d="M51.4946 32.5653C51.4946 32.0467 51.0743 31.6265 50.5558 31.6265H41.3078C40.7894 31.6265 40.369 32.0467 40.369 32.5653C40.369 33.0839 40.7894 33.5041 41.3078 33.5041H50.5558C51.0743 33.5041 51.4946 33.0839 51.4946 32.5653Z" fill="#1F4A21"/>
<path d="M48.8598 36.4019H38.4477C37.9292 36.4019 37.5089 36.8221 37.5089 37.3407C37.5089 37.8593 37.9292 38.2795 38.4477 38.2795H48.8598C49.3782 38.2795 49.7986 37.8593 49.7986 37.3407C49.7986 36.8221 49.3782 36.4019 48.8598 36.4019Z" fill="#1F4A21"/>
<path d="M48.8598 40.9761H38.4477C37.9292 40.9761 37.5089 41.3963 37.5089 41.9149C37.5089 42.4335 37.9292 42.8537 38.4477 42.8537H48.8598C49.3782 42.8537 49.7986 42.4335 49.7986 41.9149C49.7986 41.3963 49.3782 40.9761 48.8598 40.9761Z" fill="#1F4A21"/>
<path d="M48.8598 45.5503H38.4477C37.9292 45.5503 37.5089 45.9705 37.5089 46.4891C37.5089 47.0077 37.9292 47.4279 38.4477 47.4279H48.8598C49.3782 47.4279 49.7986 47.0077 49.7986 46.4891C49.7986 45.9705 49.3782 45.5503 48.8598 45.5503Z" fill="#1F4A21"/>
</g>
<defs>
<clipPath id="clip0_14555_406">
<rect width="64" height="64" fill="white"/>
</clipPath>
</defs>
</svg>
