<svg width="64" height="64" viewBox="0 0 64 64" fill="none" xmlns="http://www.w3.org/2000/svg">
<g clip-path="url(#clip0_14555_384)">
<path d="M61.6213 51.7977L60.6859 49.9217C60.0412 48.6323 58.8256 47.798 57.4678 47.619C57.9819 45.6116 57.768 43.4824 56.8263 41.5998L52.1047 32.142L51.7519 28.4298C51.4279 25.0072 51.419 21.8991 51.7249 18.9274C51.74 18.7797 51.7502 18.6319 51.7576 18.484C52.2364 18.6635 52.739 18.753 53.2405 18.753C54.4576 18.7529 55.6661 18.231 56.5005 17.222L57.835 15.6077C59.3194 13.8123 59.0663 11.1438 57.2708 9.65928L54.9914 7.77488C54.5925 7.44513 54.0014 7.50101 53.6715 7.90014C53.3415 8.29914 53.3976 8.89015 53.7968 9.22002L56.076 11.1044C57.0747 11.93 57.2154 13.4143 56.3899 14.4131L55.0554 16.0272C54.2299 17.0257 52.7455 17.1669 51.7467 16.3411L41.2355 7.65088C40.2367 6.82525 40.096 5.34099 40.9216 4.34235L42.2561 2.72821C42.6561 2.24433 43.2206 1.9452 43.8455 1.88595C44.4704 1.82733 45.081 2.01433 45.5648 2.41446L50.5558 6.54075C50.955 6.87063 51.546 6.8145 51.8759 6.41562C52.2059 6.01662 52.1497 5.42561 51.7507 5.09561L46.7597 0.969318C45.8899 0.250186 44.7928 -0.0873175 43.6685 0.0193085C42.545 0.125935 41.5303 0.663565 40.8111 1.53332L39.4767 3.14771C38.7576 4.01747 38.4204 5.11523 38.5269 6.23887C38.5521 6.50562 38.6025 6.766 38.6751 7.018C36.6313 7.3605 34.7709 8.42277 33.4292 10.0474L31.3492 12.5632C31.0192 12.9622 31.0753 13.5532 31.4743 13.8832C31.649 14.0277 31.8608 14.0982 32.0712 14.0982C32.3409 14.0982 32.6088 13.9822 32.7942 13.7581L34.8746 11.2419C36.0815 9.78053 37.824 8.9004 39.7051 8.78639C39.8109 8.89465 49.8422 17.1996 49.8422 17.1996C49.9055 17.7085 49.912 18.224 49.8596 18.7362C49.541 21.8314 49.5495 25.0601 49.8851 28.6072L50.2448 32.3916C50.3452 33.427 49.5615 34.3535 48.5202 34.4205C47.5022 34.4948 46.6086 33.6659 46.5377 32.6196L45.7402 27.9421C45.6178 27.1629 44.5875 26.8883 44.0933 27.5023L38.2961 34.5154C38.2839 33.3946 37.6808 32.3282 36.7292 31.7354L39.1534 28.8033C39.4834 28.4043 39.4272 27.8133 39.0282 27.4833C38.6294 27.1536 38.0383 27.2093 37.7082 27.6085L36.3321 29.2728C36.2407 28.2178 35.6139 27.2277 34.6883 26.6966L36.2795 24.7719C36.6095 24.3729 36.5533 23.7819 36.1542 23.452C35.7555 23.1222 35.1642 23.1782 34.8343 23.5773L32.6237 26.2513C32.0867 26.3078 31.5763 26.4936 31.1308 26.7882C30.891 26.1001 30.3778 25.4549 29.7405 25.0642L32.8843 21.2634C33.2143 20.8645 33.1583 20.2734 32.7594 19.9434C32.3605 19.6133 31.7695 19.6693 31.4394 20.0683L27.7189 24.5663C26.4581 24.6428 25.6975 25.3651 24.8996 26.2591C24.7796 26.2047 24.6662 26.1347 24.563 26.0496C24.2566 25.7963 24.0672 25.4386 24.0296 25.0424C23.9921 24.6464 24.1108 24.2595 24.3642 23.9532L30.1893 16.9093C30.5193 16.5105 30.4633 15.9195 30.0643 15.5895C29.6654 15.2593 29.0744 15.3153 28.7444 15.7145L22.9192 22.7583C21.7372 24.1878 21.9384 26.3124 23.3687 27.4951C23.4346 27.5495 23.5037 27.599 23.5731 27.6478L17.5193 33.986C17.5193 33.986 17.4546 31.1659 17.4546 31.1656C17.3998 28.7712 15.051 26.9514 12.7179 27.6013C11.0943 28.0535 9.9577 29.5978 9.99633 31.2799L10.0836 35.0847C10.1623 38.5183 9.94907 41.6188 9.43144 44.5626C9.40569 44.7085 9.38457 44.8551 9.36657 45.0022C8.78981 44.7366 8.15606 44.603 7.5038 44.6177C6.37554 44.6436 5.3249 45.1074 4.5454 45.9235L3.09938 47.4381C1.49037 49.1229 1.55187 51.8026 3.23651 53.4116L5.37515 55.4543C5.74953 55.8119 6.34291 55.7982 6.70067 55.424C7.05817 55.0495 7.04467 54.4561 6.67029 54.0985L4.53152 52.0557C4.07764 51.6222 3.81976 51.0378 3.80526 50.4103C3.79076 49.7828 4.02164 49.1872 4.45527 48.7332L5.90179 47.2186C6.33541 46.7648 6.91979 46.5069 7.5473 46.4924C8.17393 46.478 8.77031 46.7088 9.22444 47.1424L19.0868 56.5621C20.0238 57.4571 20.0582 58.9476 19.163 59.8848L17.7165 61.3992C16.8216 62.3363 15.3309 62.3705 14.394 61.4754L9.71082 57.0026C9.33669 56.6451 8.74319 56.6586 8.38531 57.0331C8.02781 57.4075 8.04131 58.0009 8.41568 58.3586L13.0989 62.8314C13.9159 63.6117 14.9665 63.9992 16.0161 63.9992C17.1305 63.9991 18.2437 63.5619 19.0724 62.6943L20.5189 61.1798C21.5203 60.1314 21.8743 58.6976 21.5931 57.3762C23.6575 57.1812 25.5904 56.2559 27.045 54.7311L31.1554 50.4264L32.5988 50.9091C35.8571 51.9973 38.7027 53.2476 41.2981 54.7312C41.4269 54.8048 41.5579 54.8743 41.6901 54.941C40.4629 56.1927 40.0977 58.1346 40.9234 59.7885L41.8584 61.6624C42.5974 63.1429 44.0939 64.0003 45.6464 64.0002C46.2794 64.0002 46.9221 63.8574 47.5261 63.5562L50.1723 62.2349C50.6356 62.0035 50.8236 61.4407 50.5922 60.9773C50.3608 60.5139 49.798 60.3258 49.3346 60.5574L46.6887 61.8785C45.5293 62.4565 44.1147 61.9844 43.5359 60.825L42.6009 58.9511C42.0221 57.792 42.4944 56.3776 43.6529 55.7987L55.8546 49.7079C56.016 49.6275 56.1877 49.5648 56.3594 49.5225C57.4272 49.267 58.5164 49.7755 59.0082 50.7593L59.9434 52.6351C60.2238 53.1962 60.2687 53.8332 60.0698 54.4286C59.8709 55.024 59.4524 55.506 58.8909 55.7861L53.097 58.6786C52.6337 58.9099 52.4456 59.4729 52.677 59.9361C52.9081 60.3994 53.4712 60.5873 53.9345 60.3561L59.7282 57.4637C60.7378 56.9602 61.4908 56.0931 61.8483 55.0226C62.2058 53.9521 62.1255 52.8064 61.6213 51.7977ZM25.6887 53.4366C24.3808 54.8076 22.5803 55.5611 20.6949 55.54C20.5976 55.4245 20.4936 55.3129 20.3819 55.2062L11.1855 46.4224C11.1588 45.9076 11.1892 45.3932 11.2785 44.8884C11.8177 41.8208 12.0402 38.6001 11.9585 35.0419L11.8712 31.2371C11.8596 30.7317 12.0482 30.2549 12.4023 29.8944C12.7536 29.5368 13.223 29.3402 13.7264 29.3402H13.736C14.7295 29.344 15.5569 30.1822 15.5805 31.2087L15.6855 35.7927C15.696 36.2499 16.0326 36.6223 16.4678 36.6949C16.623 36.7963 16.801 36.847 16.979 36.847C17.2261 36.847 17.4729 36.7499 17.6571 36.5572L26.8872 26.8933C28.2881 25.5123 30.359 27.4845 29.0409 28.9502L23.6421 34.6029C23.2846 34.9773 23.2981 35.5707 23.6726 35.9284C24.0467 36.2859 24.6402 36.2723 24.9981 35.8979L31.9077 28.5636C33.3108 27.1842 35.3778 29.1576 34.0607 30.6209L26.1355 38.9187C25.778 39.2931 25.7915 39.8866 26.166 40.2442C26.3475 40.4177 26.5806 40.5037 26.8134 40.5037C27.0606 40.5037 27.3072 40.4066 27.4915 40.2137L33.8557 33.5498C35.2554 32.1659 37.3281 34.1415 36.0096 35.606L28.3908 43.5825C28.0331 43.9567 28.0466 44.5502 28.421 44.908C28.7953 45.2656 29.3888 45.2521 29.7465 44.8777L34.9288 39.4529C35.4722 38.8604 36.4635 38.8431 37.0333 39.4039C37.6267 39.9713 37.6486 40.9156 37.0822 41.5088L25.6887 53.4366ZM43.6397 53.71C43.148 53.5611 42.6746 53.3585 42.2288 53.1036C39.525 51.5579 36.5695 50.2583 33.1932 49.1308L32.5865 48.9279L38.4376 42.8035C39.7177 41.4628 39.669 39.3297 38.3267 38.0464C38.23 37.9544 38.1273 37.8698 38.0213 37.7904L40.4915 34.8023L41.6394 37.1022C41.8035 37.431 42.1349 37.6212 42.479 37.6212C42.6196 37.6212 42.7626 37.5893 42.897 37.5223C43.3603 37.2909 43.5484 36.728 43.3172 36.2647L41.7981 33.2215L44.2353 30.2732L44.6837 32.9029C44.8852 34.8256 46.5207 36.2997 48.4018 36.2997C49.5835 36.304 50.684 35.7208 51.3546 34.8374L55.1488 42.4378C55.9962 44.1317 56.0956 46.0815 55.4385 47.8484C55.2954 47.9017 55.1549 47.9618 55.0184 48.0298L43.6397 53.71Z" fill="#1F4A21"/>
</g>
<defs>
<clipPath id="clip0_14555_384">
<rect width="64" height="64" fill="white"/>
</clipPath>
</defs>
</svg>
