<svg width="64" height="64" viewBox="0 0 64 64" fill="none" xmlns="http://www.w3.org/2000/svg">
<g clip-path="url(#clip0_14554_504)">
<path d="M12.2062 54.5485C12.1858 54.5303 12.1648 54.5128 12.1429 54.4962C11.4904 53.9546 10.838 53.3739 10.2377 52.7737C9.85636 52.3964 9.2424 52.3964 8.86103 52.7737C8.47935 53.1559 8.47935 53.7747 8.86103 54.1569C9.51349 54.8094 10.166 55.4161 10.8967 56.0034C11.2985 56.365 11.9173 56.3324 12.2789 55.9306C12.6404 55.5289 12.6079 54.9102 12.2062 54.5485Z" fill="#1F4A21"/>
<path d="M1.9636 25.533C1.45338 25.3548 0.895199 25.6241 0.716915 26.1343C0.690491 26.21 0.673363 26.2888 0.666186 26.3685C0.470449 27.2624 0.320383 28.1693 0.209465 29.0762C0.139652 29.6067 0.508618 30.0949 1.03809 30.1724H1.16206C1.65743 30.1727 2.07484 29.8029 2.13422 29.3111C2.23861 28.4629 2.38215 27.6082 2.56484 26.7796C2.74313 26.2693 2.47382 25.7112 1.9636 25.533Z" fill="#1F4A21"/>
<path d="M7.34078 49.3613C6.83839 48.6697 6.3621 47.952 5.92495 47.2213C5.64863 46.7567 5.04804 46.604 4.58349 46.8804C4.58268 46.8808 4.5817 46.8813 4.58088 46.882C4.11633 47.1583 3.96366 47.7589 4.23997 48.2234C4.24046 48.2243 4.24095 48.2252 4.2416 48.2261C4.71137 49.009 5.22029 49.7789 5.76183 50.5162C6.09573 50.9413 6.711 51.015 7.13607 50.6811C7.54044 50.3633 7.62999 49.7867 7.34078 49.3613Z" fill="#1F4A21"/>
<path d="M3.92843 43.1891C3.61525 42.3996 3.32816 41.584 3.08675 40.7619C2.9362 40.2429 2.39319 39.9441 1.87416 40.0946C1.86502 40.0973 1.85605 40.1 1.84708 40.103C1.33343 40.2599 1.04227 40.8016 1.19462 41.3165C1.45561 42.1908 1.75574 43.0651 2.09502 43.9264C2.29858 44.4327 2.87405 44.678 3.38036 44.4744C3.88667 44.2709 4.13199 43.6954 3.92843 43.1891Z" fill="#1F4A21"/>
<path d="M4.51243 18.8226C4.02961 18.5794 3.44093 18.7737 3.19773 19.2565C2.78668 20.0721 2.40825 20.9138 2.0755 21.7685C1.87927 22.2692 2.12411 22.8346 2.62357 23.0342C3.12612 23.2332 3.6949 22.9873 3.8939 22.4847C3.89455 22.4831 3.89521 22.4813 3.89586 22.4797C4.20904 21.6837 4.54832 20.8942 4.94632 20.1373C5.18952 19.6545 4.99525 19.066 4.51243 18.8226Z" fill="#1F4A21"/>
<path d="M2.16715 36.3802C2.16699 36.3794 2.16699 36.3784 2.16683 36.3776C2.06243 35.5294 1.99066 34.6681 1.95804 33.8199C1.9383 33.2794 1.48403 32.8574 0.943468 32.8771C0.402906 32.8969 -0.0190718 33.3511 0.000665067 33.8917C0.000665067 34.8051 0.105058 35.7251 0.222501 36.632C0.289378 37.1064 0.689825 37.4624 1.16857 37.4737H1.31863C1.85495 37.406 2.23485 36.9163 2.16715 36.3802Z" fill="#1F4A21"/>
<path d="M28.1314 3.73148C28.0792 3.19092 27.5986 2.7952 27.0581 2.8474C26.1512 2.93874 25.2377 3.06923 24.3373 3.2454C23.7968 3.2958 23.3996 3.77487 23.45 4.31543C23.5004 4.85599 23.9795 5.25318 24.52 5.20277L24.5135 5.17667H24.7027C25.5444 5.01356 26.3991 4.88959 27.2473 4.80477C27.7879 4.75258 28.1836 4.27204 28.1314 3.73148Z" fill="#1F4A21"/>
<path d="M8.76317 12.9015C8.35603 12.5412 7.73375 12.5792 7.37343 12.9863C6.77317 13.6714 6.19901 14.3957 5.66399 15.1395C5.34689 15.5771 5.4446 16.1891 5.8824 16.5062C6.04861 16.6266 6.24827 16.6917 6.45346 16.6923V16.7054C6.76844 16.7065 7.06466 16.5559 7.24946 16.3008C7.75186 15.6092 8.28687 14.9307 8.84799 14.2913C9.20831 13.8841 9.1703 13.262 8.76317 12.9015Z" fill="#1F4A21"/>
<path d="M34.581 3.01056C33.6806 2.87354 32.7606 2.77567 31.8472 2.72347C31.3066 2.69101 30.8422 3.10288 30.8098 3.64344C30.7773 4.184 31.1892 4.64839 31.7297 4.68085C32.591 4.7461 33.4457 4.83744 34.2874 4.96793H34.4374C34.978 5.00757 35.4483 4.60158 35.4879 4.06101C35.5275 3.52062 35.1216 3.05019 34.581 3.01056Z" fill="#1F4A21"/>
<path d="M14.3213 8.23837C14.0151 7.82259 13.4387 7.71608 13.0041 7.99517C12.2538 8.51061 11.5165 9.07173 10.8119 9.65241C10.3956 9.99838 10.3387 10.6161 10.6846 11.0324C11.0306 11.4486 11.6483 11.5056 12.0646 11.1596C12.717 10.6115 13.4087 10.0896 14.1133 9.60674C14.5487 9.28639 14.6416 8.67373 14.3213 8.23837Z" fill="#1F4A21"/>
<path d="M17.604 7.44743C17.6007 7.44743 17.5976 7.44678 17.5944 7.44678C17.5909 7.44678 17.5877 7.44743 17.5844 7.44743H17.604Z" fill="#1F4A21"/>
<path d="M21.055 5.15486C20.912 4.63371 20.3734 4.32705 19.8521 4.47027C19.8062 4.48283 19.7614 4.49881 19.7178 4.5179C18.8631 4.83108 18.0084 5.17035 17.1863 5.5814C16.6961 5.80944 16.4837 6.39159 16.7118 6.88159C16.8716 7.22527 17.2158 7.44483 17.5942 7.44678C17.7355 7.44401 17.8746 7.41122 18.0019 7.34957C18.7718 6.98419 19.5678 6.65144 20.3703 6.35783C20.8918 6.21461 21.1982 5.67601 21.055 5.15486Z" fill="#1F4A21"/>
<path d="M32.8879 61.7678C32.8536 61.2273 32.3878 60.8169 31.8472 60.8511C30.9925 60.9164 30.1312 60.9359 29.2765 60.9098C28.7359 60.8955 28.2861 61.3219 28.2717 61.8624C28.2574 62.403 28.6837 62.8529 29.2243 62.8672H30.0529C30.7054 62.8672 31.3578 62.8672 31.9712 62.8085C32.5117 62.7744 32.9221 62.3084 32.8879 61.7678Z" fill="#1F4A21"/>
<path d="M58.5034 39.0949C57.9791 38.9616 57.4459 39.2785 57.3127 39.8028C57.1039 40.6314 56.8494 41.4535 56.5623 42.256C56.3922 42.7601 56.6558 43.3078 57.1561 43.4892C57.6648 43.6717 58.2253 43.4071 58.4078 42.8984C58.4081 42.8974 58.4085 42.8964 58.4088 42.8955C58.7154 42.0342 58.9829 41.1534 59.2113 40.2856C59.3447 39.7614 59.0276 39.2283 58.5034 39.0949Z" fill="#1F4A21"/>
<path d="M59.7528 27.8889C59.6028 26.9885 59.4135 26.0816 59.1852 25.2008C59.0289 24.6834 58.4826 24.3906 57.9652 24.547C57.4748 24.6951 57.1816 25.1965 57.2931 25.6966C57.5084 26.5187 57.6845 27.3669 57.8281 28.2086C57.9124 28.6697 58.3119 29.0062 58.7807 29.0111H58.9438C59.477 28.9245 59.8391 28.4223 59.7528 27.8889Z" fill="#1F4A21"/>
<path d="M63.9124 16.6555C63.8664 16.5555 63.8034 16.4643 63.7263 16.386L61.9973 14.5853C61.7497 14.338 61.3857 14.2476 61.0512 14.3504L57.9324 15.2964L54.2787 11.4208L62.4801 6.85363C62.958 6.63358 63.167 6.06774 62.9468 5.58998C62.9008 5.48999 62.8378 5.39881 62.7606 5.32051L60.4575 3.01733C60.2064 2.77609 59.8437 2.69094 59.5114 2.7955L49.1177 5.94035L45.6205 2.22786C44.7293 1.1973 43.2784 0.852964 42.019 1.37314H41.9603C41.0108 1.76396 40.2567 2.51804 39.8659 3.46753C39.7673 3.71546 39.6974 3.97367 39.6571 4.23743L39.2591 4.10041C38.7438 3.93469 38.1917 4.21802 38.0259 4.7333C37.8602 5.24858 38.1435 5.80072 38.6588 5.96645C39.1612 6.12956 39.6636 6.31225 40.166 6.50146C40.3172 6.73798 40.4945 6.95688 40.6945 7.15392L44.3809 10.6511L43.3239 14.1418C32.986 6.7675 18.6275 9.17002 11.2533 19.5079C3.87901 29.8458 6.28153 44.2041 16.6194 51.5784C26.9573 58.9526 41.3158 56.5501 48.69 46.2122C54.5707 37.9682 54.3654 26.8476 48.1847 18.8262L49.855 15.8119L53.7306 19.4657L52.7976 22.5518C52.6852 22.8909 52.7736 23.2644 53.026 23.5174C53.026 23.5174 54.9377 25.4096 54.9833 25.4748C55.4353 25.7368 56.0142 25.5828 56.2763 25.1308C56.2804 25.1238 56.2845 25.1166 56.2882 25.1094L58.8394 20.4313L63.4457 17.9193C63.9236 17.6991 64.1326 17.1333 63.9124 16.6555ZM15.1964 17.9453C19.1299 14.0135 24.4652 11.8071 30.0268 11.8121C30.4618 11.8121 30.8967 11.8252 31.3317 11.8513C35.0311 15.2637 33.9415 18.3759 31.4622 21.1815C29.9991 22.7332 28.4294 24.1808 26.7645 25.5138C24.3569 27.5625 22.1125 29.4742 21.2643 31.3859C20.2595 33.6565 20.9968 35.7117 25.0551 37.506C27.0842 38.4064 28.1869 39.1045 28.6175 39.633C28.6238 39.6407 28.63 39.646 28.6364 39.6508C28.623 39.6548 28.6095 39.6592 28.5914 39.6656C27.6088 40.0398 26.5629 40.2192 25.5118 40.1941C20.5922 40.4029 17.0885 37.258 14.3678 34.8244C12.4104 33.0823 10.7858 31.6338 9.09591 31.6208C9.37516 26.4665 11.5477 21.5966 15.1964 17.9453ZM51.0751 32.8083H51.0816C51.0787 41.9019 45.2328 49.964 36.5905 52.7931C36.3478 51.2639 36.6306 49.6975 37.393 48.3498C38.4269 46.6895 39.7533 45.2306 41.3078 44.0436C47.33 39.0197 47.6693 36.2141 47.9303 34.0545C48.0934 32.6908 48.2173 31.673 50.912 30.1919C51.0201 31.0598 51.0746 31.9336 51.0751 32.8083ZM49.8615 25.7487C50.1532 26.5701 50.3928 27.4092 50.5792 28.2606C46.4753 30.3485 46.2926 31.8361 46.0446 33.8653C45.8228 35.6921 45.5357 38.0801 40.0942 42.6212C38.3513 43.9547 36.8694 45.5981 35.7227 47.469C34.723 49.2362 34.3766 51.2986 34.7441 53.2955C23.4257 55.8828 12.153 48.8049 9.56568 37.4867C9.26979 36.1922 9.09722 34.8727 9.05024 33.5455C10.0876 33.5455 11.4317 34.7787 13.0824 36.2467C16.0707 38.9153 19.8941 42.3211 25.5901 42.1189C26.9322 42.142 28.2647 41.8889 29.5048 41.3751C30.0276 41.1439 30.4233 40.6958 30.5879 40.1484C30.7269 39.5379 30.5505 38.8983 30.1181 38.4455C29.5048 37.6952 28.1608 36.8078 25.851 35.777C23.0911 34.5569 22.4909 33.3694 23.0324 32.1558C23.6849 30.6291 25.7858 28.8935 28.0172 26.9361C29.756 25.5309 31.3934 24.0048 32.9172 22.3689C35.6445 19.2632 37.0472 15.877 34.2743 12.171C37.356 12.801 40.2555 14.1192 42.7563 16.027L41.2556 20.9792C41.1448 21.3185 41.2329 21.6912 41.484 21.9448C41.484 21.9448 43.9176 24.3589 43.9959 24.4046C44.4479 24.6666 45.0268 24.5126 45.2889 24.0606C45.293 24.0536 45.2969 24.0464 45.3008 24.0392L47.1995 20.6073C48.3203 22.1898 49.2161 23.9202 49.8615 25.7487ZM58.611 18.4607L57.7693 18.8783C57.5809 18.9717 57.4292 19.1256 57.3387 19.3154L56.9211 20.1636L55.2965 23.0997L54.8202 22.5777L55.7663 19.4524C55.8765 19.0862 55.7555 18.6899 55.4596 18.4477L50.3117 13.5999C49.939 13.2337 49.3401 13.2391 48.9739 13.6118C48.965 13.6208 48.9566 13.6297 48.9481 13.639C48.8828 13.7108 44.2504 22.0558 44.2504 22.0558L43.2391 21.0444L46.397 10.6377C46.5102 10.2696 46.3888 9.86962 46.0903 9.62641L41.9929 5.77038C41.5394 5.38625 41.3887 4.75157 41.621 4.20448C41.8291 3.73047 42.2092 3.35286 42.6845 3.1475H42.7171C43.2575 2.93887 43.8707 3.09612 44.2439 3.53897L48.1586 7.67556C48.4044 7.93948 48.7789 8.04077 49.1243 7.93654L59.5636 4.78517L60.5749 5.79648L52.2887 10.3506C51.83 10.6009 51.661 11.1757 51.9114 11.6342C51.9153 11.6414 51.9192 11.6484 51.9233 11.6556C51.9624 11.7273 56.9538 17.0383 56.9538 17.0383C57.201 17.3 57.5754 17.3987 57.9194 17.2928L61.0577 16.3467L61.5471 16.8361L58.611 18.4607Z" fill="#1F4A21"/>
<path d="M56.0903 45.9729C56.0761 45.9646 56.0616 45.9565 56.0469 45.949C55.5792 45.7045 55.002 45.8747 54.742 46.3339C54.3309 47.0842 53.8807 47.8215 53.3979 48.5262C53.0862 48.9694 53.1929 49.5814 53.636 49.8931C54.0792 50.2048 54.6912 50.0981 55.0029 49.6549C55.5119 48.8981 55.9947 48.1086 56.4384 47.3126C56.7122 46.8464 56.5563 46.2466 56.0903 45.9729Z" fill="#1F4A21"/>
<path d="M59.1852 31.6861C58.6448 31.6788 58.2006 32.1109 58.1931 32.6513C58.1929 32.6645 58.1929 32.6777 58.1934 32.6909V32.8018C58.1934 33.6566 58.1543 34.5178 58.076 35.3725C58.027 35.9108 58.4236 36.3869 58.9619 36.4359C58.9623 36.4359 58.9628 36.436 58.9633 36.436H59.0547C59.5709 36.4409 60.002 36.0439 60.0399 35.5291C60.1247 34.6222 60.1638 33.7022 60.1638 32.7888V32.6583C60.1603 32.1203 59.7231 31.6861 59.1852 31.6861Z" fill="#1F4A21"/>
<path d="M24.8202 60.4204C23.972 60.2768 23.1303 60.0941 22.3148 59.8462C21.8049 59.6669 21.2462 59.9349 21.0668 60.4448C20.8874 60.9547 21.1555 61.5134 21.6654 61.6928C21.7028 61.706 21.7411 61.7168 21.7798 61.7254C22.654 61.9734 23.5544 62.1887 24.4548 62.3779H24.6375C25.1781 62.4283 25.6572 62.0311 25.7076 61.4906C25.758 60.95 25.3608 60.4709 24.8202 60.4204Z" fill="#1F4A21"/>
<path d="M39.9633 60.1231C39.7863 59.6425 39.2687 59.3796 38.7763 59.5202V59.5463C37.9672 59.8138 37.1321 60.0422 36.3035 60.1988C35.7756 60.3177 35.444 60.8421 35.5629 61.3699C35.6818 61.8978 36.2062 62.2294 36.7341 62.1105C37.6214 61.9082 38.5153 61.6603 39.3831 61.3797C39.8903 61.1928 40.15 60.6302 39.9633 60.1231Z" fill="#1F4A21"/>
<path d="M18.1064 58.2867C17.33 57.9017 16.5666 57.4841 15.8293 57.0666C15.3626 56.7927 14.7624 56.949 14.4885 57.4156C14.2146 57.8823 14.3709 58.4826 14.8376 58.7564C15.627 59.2197 16.4426 59.6503 17.2712 60.0614C17.7612 60.292 18.3455 60.0816 18.5762 59.5916C18.8068 59.1016 18.5965 58.5173 18.1064 58.2867Z" fill="#1F4A21"/>
<path d="M51.9323 51.9913C51.5402 51.6333 50.9339 51.6532 50.5662 52.0365H50.5727C49.9855 52.6889 49.3657 53.2631 48.7328 53.8307C48.3293 54.1911 48.2942 54.8104 48.6545 55.214C49.0148 55.6175 49.6342 55.6526 50.0377 55.2923C50.6902 54.6855 51.3818 54.0395 51.9951 53.374C52.3597 52.9747 52.3314 52.3557 51.9323 51.9913Z" fill="#1F4A21"/>
<path d="M46.5326 56.8731C46.2553 56.4092 45.6543 56.258 45.1903 56.5353C45.1746 56.5446 45.1593 56.5544 45.1443 56.5646V56.5385C44.4266 56.9953 43.6762 57.4259 42.9194 57.8435C42.4384 58.0902 42.2485 58.6804 42.4953 59.1614C42.7421 59.6424 43.3322 59.8323 43.8133 59.5855C44.6223 59.1679 45.4248 58.7047 46.1947 58.2154C46.6586 57.9379 46.81 57.337 46.5326 56.8731Z" fill="#1F4A21"/>
</g>
<defs>
<clipPath id="clip0_14554_504">
<rect width="64" height="64" fill="white"/>
</clipPath>
</defs>
</svg>
