<svg width="64" height="64" viewBox="0 0 64 64" fill="none" xmlns="http://www.w3.org/2000/svg">
<path d="M64 40.0324C64 37.2924 61.7687 36.1404 59.8003 35.124C59.5379 34.9886 59.2733 34.852 59.0106 34.7105L57.0156 33.6361L56.8228 31.7099C58.674 30.482 59.8978 28.3801 59.8978 25.9969V24.1755H61.3763V22.3005H59.8978V22.205C59.8978 18.7452 57.3195 15.8779 53.9837 15.4192V13.9715H52.1087V15.4192C48.773 15.878 46.1948 18.7452 46.1948 22.205V22.3005H44.7163V24.1755H46.1948V25.9969C46.1948 28.38 47.4185 30.4819 49.2697 31.7099L49.0769 33.6361L47.0819 34.7105C46.8198 34.8516 46.5556 34.9881 46.2938 35.1232C45.7489 35.4046 45.1901 35.6935 44.6711 36.0146C44.6642 36.0112 44.6574 36.0077 44.6506 36.0042C44.413 35.8847 44.1739 35.7646 43.9357 35.6421L37.3421 32.2452L37.017 28.9979C39.6969 27.3202 41.484 24.3431 41.484 20.9549V18.7757H43.7189V13.1507H41.8439C41.8439 8.75987 38.8797 4.8825 34.7089 3.68787C34.3781 2.50262 33.2894 1.63037 32.0001 1.63037C30.7116 1.63037 29.6235 2.50162 29.292 3.68587C27.6987 4.1405 26.2458 4.99137 25.0591 6.17137L26.3813 7.50087C27.1859 6.70075 28.1414 6.08787 29.1876 5.6935V13.1509H24.0314C24.0314 11.6186 24.4675 10.1307 25.2926 8.84787L23.7156 7.83362C22.6956 9.41962 22.1564 11.2582 22.1564 13.1509H20.2814V18.7759H22.5164V20.955C22.5164 24.3431 24.3035 27.3202 26.9834 28.998L26.6583 32.2454L20.0646 35.6422C19.8263 35.765 19.5869 35.8852 19.3489 36.0049C19.3423 36.0081 19.3356 36.0115 19.3291 36.0149C18.8101 35.6937 18.2514 35.4049 17.7065 35.1235C17.4446 34.9882 17.1805 34.8519 16.9182 34.7106L14.9233 33.6362L14.7304 31.71C16.5818 30.4821 17.8054 28.3801 17.8054 25.997V24.1756H19.2839V22.3006H17.8054V22.2051C17.8054 18.7454 15.2271 15.878 11.8912 15.4194V13.9716H10.0162V15.4194C6.6805 15.8781 4.10225 18.7454 4.10225 22.2051V22.3006H2.62375V24.1756H4.10225V25.997C4.10225 28.3801 5.32587 30.482 7.17725 31.71L6.98438 33.6362L4.98938 34.7106C4.72675 34.852 4.46212 34.9886 4.19987 35.1241C2.23125 36.1404 0 37.2922 0 40.0324V50.9251H15.0829L32.0001 62.3692L40.0638 56.9144L39.0132 55.3614L32.9378 59.4714V37.7477L36.5871 40.3912L40.5845 36.025L43.0771 37.3091C43.3208 37.4346 43.5655 37.5576 43.8089 37.6799C46.2169 38.8899 47.6927 39.7265 47.6927 41.5994L47.6926 49.49L40.5665 54.3107L41.617 55.8637L48.9175 50.9252H64V40.0324ZM39.9689 13.1509H34.8126V5.69562C37.859 6.84962 39.9689 9.81737 39.9689 13.1509ZM31.0625 4.443C31.0625 3.926 31.483 3.5055 32 3.5055C32.517 3.5055 32.9375 3.926 32.9375 4.443V13.1509H31.0625V4.443ZM22.1562 15.0259H41.8438V16.9009H22.1562V15.0259ZM24.3913 20.955V18.7759H39.6089V20.955C39.6089 25.1505 36.1956 28.5639 32.0001 28.5639C27.8046 28.5639 24.3913 25.1506 24.3913 20.955ZM32.0001 30.4389C33.1302 30.4389 34.2144 30.2394 35.2204 29.8751L35.4719 32.3871L32.0001 34.7735L28.5284 32.3871L28.7799 29.8751C29.7859 30.2394 30.87 30.4389 32.0001 30.4389ZM30.3743 35.9311L27.6672 37.892L25.1431 35.1351L27.4711 33.9357L30.3743 35.9311ZM5.97725 22.2051C5.97725 19.7816 7.719 17.7582 10.0162 17.3184V19.5966H11.8912V17.3182C14.1886 17.7581 15.9304 19.7815 15.9304 22.205V22.3005H5.97725V22.2051ZM5.97725 25.997V24.1756H15.9304V25.997C15.9304 28.7411 13.6979 30.9736 10.9537 30.9736C8.20975 30.9736 5.97725 28.7411 5.97725 25.997ZM10.9537 32.8486C11.641 32.8486 12.3044 32.7457 12.9307 32.5566L13.0656 33.9041L10.9537 36.2312L8.84188 33.9041L8.97675 32.5566C9.60313 32.7457 10.2666 32.8486 10.9537 32.8486ZM5.06 36.7901C5.33187 36.6497 5.60625 36.508 5.87838 36.3615L7.66625 35.3986L10.0162 37.9881V40.6617H1.875V40.0322C1.875 38.5116 3.08525 37.8096 5.06 36.7901ZM14.4326 42.5369V44.4119H11.8912V42.5369H14.4326ZM10.0162 44.4119H1.875V42.5369H10.0162V44.4119ZM1.875 49.0501V46.287H10.0162V49.0501H1.875ZM11.8912 46.2869H14.4326V49.05H11.8912V46.2869ZM14.5196 40.6619H11.8912V37.9882L14.2413 35.3987L16.0291 36.3616C16.3008 36.5079 16.5746 36.6494 16.8461 36.7895C17.0269 36.8829 17.2046 36.9747 17.3787 37.0665C16.011 37.907 14.8386 38.981 14.5196 40.6619ZM16.3076 41.5994C16.3076 39.7261 17.7831 38.8897 20.1905 37.6802C20.4341 37.5579 20.6791 37.4347 20.9231 37.309L23.4158 36.0249L27.4131 40.3911L31.0625 37.7476V59.4712L16.3078 49.4899L16.3076 41.5994ZM36.333 37.892L33.626 35.9311L36.529 33.9356L38.857 35.135L36.333 37.892ZM48.0696 22.2051C48.0696 19.7816 49.8114 17.7582 52.1086 17.3184V19.5966H53.9836V17.3184C56.2809 17.7582 58.0226 19.7816 58.0226 22.2051V22.3006H48.0695V22.2051H48.0696ZM48.0696 25.997V24.1756H58.0228V25.997C58.0228 28.7411 55.7902 30.9736 53.0462 30.9736C50.3022 30.9736 48.0696 28.7411 48.0696 25.997ZM53.0462 32.8486C53.7335 32.8486 54.3969 32.7457 55.0233 32.5566L55.193 34.2525C55.1716 35.0676 54.1981 35.7512 53.0462 35.7512C51.8944 35.7512 50.9209 35.0676 50.8996 34.2525L51.0694 32.5567C51.6956 32.7457 52.359 32.8486 53.0462 32.8486ZM62.125 49.0501H49.5675L49.5676 41.5994C49.5676 39.3622 48.2281 38.0541 46.6213 37.0664C46.7954 36.9746 46.9732 36.8827 47.1539 36.7894C47.4252 36.6491 47.6991 36.5077 47.9707 36.3615L49.371 35.6075C49.999 36.7957 51.4095 37.6264 53.0461 37.6264C54.6827 37.6264 56.0934 36.7957 56.7212 35.6075L58.1215 36.3615C58.3936 36.5081 58.668 36.6499 58.94 36.7902C60.9147 37.8096 62.125 38.5116 62.125 40.0324V49.0501Z" fill="#1F4A21"/>
<path d="M43.9426 45.3496H45.8176V47.2246H43.9426V45.3496Z" fill="#1F4A21"/>
<path d="M43.9426 41.5996H45.8176V43.4746H43.9426V41.5996Z" fill="#1F4A21"/>
</svg>
